# xmcd
#
# Track frame offsets:
#	150
#	13792
#	30380
#	52392
#	71460
#	81142
#	92467
#	107487
#	122730
#	146550
#	164592
#	189335
#	209925
#	223260
#	247592
#	264715
#	280947
#	305142
#	321072
#
# Disc length: 4524 seconds
#
# Revision: 2
# Processed by: cddbd v1.5.1PL2 Copyright (c) Steve Scherf et al.
# Submitted via: EasyCDDAExtractor 9.0.0.1
#
DISCID=1c11aa13
DTITLE=Lightnin' Hopkins - The Complete Prestige/Bluesville Recordings - Disc 
DTITLE=3
DYEAR=1991
DGENRE=Blues
TTITLE0=How Many More Years I Got To Let You Dog Me Around
TTITLE1=Black Cadillac
TTITLE2=Walkin' This Road By Myself
TTITLE3=The Devil Jumped The Black Man
TTITLE4=My Baby Don't Stand No Cheating
TTITLE5=You Is One Black Rat
TTITLE6=The Fox Chase
TTITLE7=Mojo Hand
TTITLE8=Mama Blues
TTITLE9=My Black Name
TTITLE10=Ida Mae
TTITLE11=Prison Farm Blues
TTITLE12=Worried Life Blues
TTITLE13=Happy Blues For John Glenn
TTITLE14=Sinner's Prayer
TTITLE15=Angel Child
TTITLE16=I Got A Leak In This Old Building
TTITLE17=Pneumonia Blues
TTITLE18=Have You Ever Been Mistreated
EXTD=
EXTT0=
EXTT1=
EXTT2=
EXTT3=
EXTT4=
EXTT5=
EXTT6=
EXTT7=
EXTT8=
EXTT9=
EXTT10=
EXTT11=
EXTT12=
EXTT13=
EXTT14=
EXTT15=
EXTT16=
EXTT17=
EXTT18=
PLAYORDER=
